<svg width="61" height="37" viewBox="0 0 61 37" fill="none" xmlns="http://www.w3.org/2000/svg">
<path d="M28.95 14.1713C29.0665 14.3951 29.0701 14.6608 28.9536 14.8866L19.3565 33.6549L19.1581 34.0407L19.1545 34.0498C18.7814 34.6995 18.2372 35.2602 17.5419 35.6624C15.427 36.8855 12.7224 36.1593 11.5012 34.0425C11.4721 33.9934 11.4448 33.9425 11.4192 33.8933L0.648222 13.5069C0.156739 12.5768 0.83016 11.4575 1.88042 11.4575H26.1854C27.008 11.4575 27.7633 11.9125 28.1473 12.6424L28.9518 14.1694H28.95V14.1713Z" fill="#0048D2"/>
<path d="M16.3623 5.47493C17.5617 7.87741 16.5898 9.8249 14.1891 9.8249C11.7885 9.8249 8.87279 7.87928 7.67163 5.47493C6.4722 3.07246 8.14292 1.87305 10.5418 1.87305C12.9406 1.87305 15.1629 3.07246 16.3606 5.47493H16.3623Z" fill="#0048D2"/>
<path d="M26.5787 18.0075C26.6753 18.1896 26.677 18.4116 26.5824 18.5955L22.864 34.0385L22.7002 34.3553L22.6966 34.3625C22.389 34.8976 21.9413 35.3599 21.3679 35.6893C19.628 36.6941 17.4039 36.0989 16.3974 34.357C16.3737 34.317 16.35 34.2752 16.3282 34.2333L7.72852 17.6471C7.32439 16.8827 7.87769 15.9618 8.74227 15.9618L24.2982 15.7744C24.9753 15.7744 25.596 16.1493 25.9126 16.748L26.5751 18.0058L26.5787 18.0075Z" fill="#FFF1BA"/>
<path d="M24.779 21.1255C24.8337 21.2293 24.8355 21.3549 24.7809 21.4605L23.2539 30.2841L23.161 30.466V30.4697C22.9827 30.7755 22.7279 31.0394 22.4002 31.2287C21.4066 31.8038 20.1342 31.4616 19.561 30.4679C19.5483 30.4442 19.5355 30.4206 19.5228 30.3988L14.6396 20.9945C14.4084 20.5578 14.7251 20.0318 15.2183 20.0318L23.4795 19.8516C23.8654 19.8516 24.2221 20.0663 24.4023 20.4085L24.7809 21.1255H24.779Z" fill="#FF6E70"/>
<path d="M60.3656 4.70854L46.1129 32.4643C44.9097 34.8049 42.4964 36.2718 39.8664 36.2591H15.2539C16.4005 36.2591 17.6217 35.2472 18.4007 33.6492C18.4026 33.6437 18.408 33.6382 18.408 33.6346L18.5282 33.3962L19.7293 31.0502L33.9858 3.22702C35.0069 1.2377 37.0598 -0.0108576 39.2949 7.11653e-05L43.0151 0.0182648C43.5265 0.0200841 43.8577 0.56064 43.6303 1.0193L42.5709 3.28527C41.0804 6.26472 42.1669 8.68176 44.999 8.68712C48.1368 8.68712 50.8267 7.26027 52.827 3.298C53.1819 2.59546 54.1739 0.455079 54.1739 0.455079C54.2903 0.220291 54.5324 0.0728711 54.7945 0.0728711L57.5645 0.0856068C62.0073 0.0856068 60.8024 3.82035 60.3656 4.70672V4.70854Z" fill="#0048D2"/>
<path d="M42.4684 14.3096H43.5004L42.4065 14.9867L42.3138 16.0605L41.7404 15.398L40.6484 16.0605L41.3983 14.9867L40.8232 14.3096H41.8515L42.5722 13.2612L42.4684 14.3096Z" fill="#FFF1BA"/>
<path d="M37.1332 28.1325H38.2089L37.0896 28.7859L37.0277 29.8179L36.4088 29.1826L35.2969 29.8179L36.0412 28.7859L35.4224 28.1325H36.4944L37.2115 27.126L37.1332 28.1325Z" fill="#FFF1BA"/>
<path d="M40.8847 27.2172H41.9567L40.8483 27.8689L40.7937 28.9025L40.173 28.2656L39.0664 28.9025L39.8018 27.8689L39.1774 27.2172H40.2476L40.9538 26.209L40.8847 27.2172Z" fill="#FFF1BA"/>
<path d="M45.4324 15.2302H46.468L45.3869 15.8818L45.3213 16.9156L44.728 16.2785L43.6523 16.9156L44.3749 15.8818L43.7816 15.2302H44.8154L45.5106 14.2236L45.4324 15.2302Z" fill="#FFF1BA"/>
<path d="M46.9209 17.7691H47.9638L46.8809 18.4207L46.8245 19.4545L46.222 18.8175L45.1445 19.4545L45.8634 18.4207L45.2592 17.7691H46.2985L46.9882 16.7627L46.9209 17.7691Z" fill="#FFF1BA"/>
<path d="M44.3373 24.7126H45.4002L44.3009 25.3659L44.2518 26.3997L43.6311 25.7627L42.5391 26.3997L43.2634 25.3659L42.6429 24.7126H43.7021L44.3992 23.7061L44.3373 24.7126Z" fill="#FFF1BA"/>
<path d="M46.5766 21.1889H47.6305L46.5421 21.8405L46.4911 22.8743L45.8796 22.2354L44.793 22.8743L45.5137 21.8405L44.8985 21.1889H45.9488L46.6404 20.1807L46.5766 21.1889Z" fill="#FFF1BA"/>
<path d="M38.762 15.2393H39.7977L38.7038 15.8927L38.6182 16.9246L38.0376 16.2876L36.9492 16.9246L37.6918 15.8927L37.1131 15.2393H38.1432L38.8585 14.231L38.762 15.2393Z" fill="#FFF1BA"/>
<path d="M35.3622 17.7783H36.4069L35.3039 18.4299L35.2111 19.4637L34.6305 18.8267L33.5312 19.4637L34.2829 18.4299L33.7005 17.7783H34.7415L35.4659 16.77L35.3622 17.7783Z" fill="#FFF1BA"/>
<path d="M33.0835 21.1965H34.1373L33.0235 21.8498L32.9324 22.8819L32.3446 22.2466L31.2344 22.8819L31.9933 21.8498L31.4055 21.1965H32.4556L33.1836 20.1899L33.0835 21.1965Z" fill="#FFF1BA"/>
<path d="M32.5517 24.7218H33.6165L32.4935 25.3752L32.4098 26.409L31.8129 25.772L30.6953 26.409L31.4542 25.3752L30.8554 24.7218H31.9165L32.6464 23.7153L32.5517 24.7218Z" fill="#FFF1BA"/>
<path d="M34.0209 27.226H35.0911L33.9699 27.8776L33.8934 28.9115L33.2855 28.2744L32.168 28.9115L32.9234 27.8776L32.3136 27.226H33.382L34.1064 26.2178L34.0209 27.226Z" fill="#FFF1BA"/>
</svg>
