<svg width="18" height="18" viewBox="0 0 18 18" fill="none" xmlns="http://www.w3.org/2000/svg">
<g id="custom.2.square.fill" clip-path="url(#clip0_5893_24723)">
<g id="Group">
<path id="Vector" d="M17.972 3.04084V14.9581C17.972 16.9693 16.9548 17.9907 14.9084 17.9907H3.06359C1.02752 17.9907 0 16.9735 0 14.9581V3.04084C0 1.02549 1.02752 0.00830078 3.06359 0.00830078H14.9084C16.9548 0.00830078 17.972 1.02971 17.972 3.04084ZM6.00005 6.19486C5.94617 6.34631 5.93372 6.46248 5.93372 6.59934C5.93372 6.98906 6.19902 7.2461 6.59697 7.2461C6.95774 7.2461 7.14846 7.02433 7.31407 6.72776C7.58551 6.12825 8.1183 5.48621 9.08683 5.48621C10.041 5.48621 10.679 6.03701 10.679 6.87268C10.679 7.60366 10.0612 8.22459 9.46669 8.85035L6.24905 12.2887C6.07079 12.4898 5.98377 12.6845 5.98377 12.8981C5.98377 13.3003 6.25116 13.5656 6.69475 13.5656H11.8777C12.2735 13.5656 12.5595 13.3003 12.5595 12.8941C12.5595 12.4775 12.2735 12.2329 11.8777 12.2329H8.2177V12.1624L10.5934 9.61791C11.4931 8.66816 12.1111 7.87108 12.1111 6.74024C12.1111 5.21639 10.8783 4.19499 9.01438 4.19499C7.59615 4.19499 6.32554 5.06705 6.00005 6.19486Z" fill="black" fill-opacity="0.87"/>
</g>
</g>
<defs>
<clipPath id="clip0_5893_24723">
<rect width="17.9728" height="17.9906" fill="white"/>
</clipPath>
</defs>
</svg>
