<svg width="18" height="18" viewBox="0 0 18 18" fill="none" xmlns="http://www.w3.org/2000/svg">
<g id="Group">
<path id="Vector" d="M17.972 3.04084V14.9581C17.972 16.9693 16.9548 17.9907 14.9084 17.9907H3.06359C1.02752 17.9907 0 16.9735 0 14.9581V3.04084C0 1.02549 1.02752 0.00830078 3.06359 0.00830078H14.9084C16.9548 0.00830078 17.972 1.02971 17.972 3.04084ZM8.41556 4.59082L6.60981 5.81662C6.38593 5.98031 6.2968 6.12754 6.2968 6.39284C6.2968 6.70377 6.54351 6.99187 6.86477 6.99187C7.01813 6.99187 7.12797 6.96905 7.3599 6.80957L8.66437 5.94838H8.73492V12.8738C8.73492 13.4456 9.03126 13.7833 9.53272 13.7833C10.0549 13.7833 10.3512 13.4456 10.3512 12.8738V5.10877C10.3512 4.52238 10.0382 4.19499 9.49322 4.19499C9.10986 4.19499 8.84667 4.29448 8.41556 4.59082Z" fill="#2C7E0A"/>
</g>
</svg>
