<svg width="73" height="30" viewBox="0 0 73 30" fill="none" xmlns="http://www.w3.org/2000/svg">
<path d="M14.9463 6.5339C14.8662 6.5339 14.8116 6.51932 14.7825 6.48841C14.7589 6.45751 14.7461 6.41377 14.7461 6.35918V0.569608C14.7461 0.453118 14.8044 0.393066 14.9191 0.393066H16.7754C17.2815 0.393066 17.6982 0.476782 18.0277 0.642408C18.3571 0.802577 18.6155 1.0228 18.8048 1.29944C18.9996 1.57792 19.1343 1.90188 19.2071 2.27136C19.2872 2.64265 19.3253 3.03395 19.3253 3.44705C19.3253 3.86027 19.2889 4.26615 19.2162 4.64286C19.1434 5.01421 19.0123 5.33996 18.823 5.6257C18.6337 5.90422 18.3717 6.12628 18.0368 6.29189C17.7073 6.45202 17.2869 6.53215 16.7754 6.53215H14.9463V6.5339ZM18.2479 3.51447C18.2479 3.0813 18.2079 2.72454 18.1296 2.44062C18.0569 2.15123 17.9531 1.92191 17.8184 1.75446C17.6837 1.58702 17.5235 1.47053 17.3342 1.40319C17.1523 1.33584 16.9502 1.30126 16.73 1.30126H15.7782V5.61847H16.6644C16.8719 5.61847 17.0703 5.59118 17.2596 5.53473C17.4489 5.47828 17.6164 5.3746 17.762 5.21983C17.9076 5.06518 18.0241 4.85221 18.1096 4.58105C18.2006 4.30253 18.246 3.94763 18.246 3.51621L18.2479 3.51447Z" fill="#ffffff"/>
<path d="M21.5502 0.789881C21.5502 0.864513 21.5447 0.935494 21.532 1.00284C21.5192 1.06472 21.4919 1.11931 21.45 1.17028C21.4136 1.21942 21.359 1.25946 21.2863 1.2904C21.219 1.31588 21.1279 1.3268 21.0114 1.3268C20.8895 1.3268 20.793 1.31224 20.7184 1.2813C20.6511 1.25036 20.6001 1.21032 20.5637 1.16117C20.5272 1.11204 20.5037 1.05561 20.4908 0.993727C20.4781 0.926385 20.4727 0.857223 20.4727 0.789881C20.4727 0.642461 20.5054 0.518693 20.5728 0.418602C20.6456 0.313028 20.793 0.260254 21.0114 0.260254C21.2298 0.260254 21.3827 0.309389 21.45 0.407673C21.5174 0.500499 21.5502 0.626087 21.5502 0.788061V0.789881ZM21.4956 6.35738C21.4956 6.4066 21.4828 6.45022 21.4591 6.48661C21.4409 6.51764 21.399 6.53209 21.3318 6.53209H20.682C20.56 6.53209 20.4982 6.4739 20.4982 6.35564V2.16766C20.4982 2.05119 20.5583 1.99112 20.682 1.99112H21.3318C21.399 1.99112 21.4409 2.00932 21.4591 2.04754C21.4828 2.07848 21.4956 2.11853 21.4956 2.16766V6.35564V6.35738Z" fill="#ffffff"/>
<path d="M24.5585 1.90186C24.8516 1.90186 25.1555 1.9237 25.4722 1.96738C25.789 2.01106 26.0601 2.0693 26.2858 2.14392C26.395 2.18032 26.4624 2.24039 26.4878 2.32046C26.5187 2.3951 26.5333 2.47517 26.5333 2.56072V6.47932C26.5333 6.745 26.5151 6.99249 26.4787 7.22004C26.4423 7.44933 26.3568 7.64597 26.2221 7.81333C26.0874 7.98081 25.8926 8.11004 25.6361 8.20288C25.3867 8.29572 25.0409 8.3412 24.6022 8.3412C24.3638 8.3412 24.1054 8.32662 23.8251 8.29572C23.5502 8.26481 23.3191 8.20836 23.1298 8.12823C23.0316 8.09185 22.9751 8.04823 22.9569 7.99901C22.9388 7.95539 22.935 7.90991 22.9478 7.86069L23.0206 7.51849C23.0333 7.44397 23.057 7.4021 23.0934 7.38926C23.1353 7.37655 23.2008 7.37655 23.2863 7.38926C23.4938 7.42029 23.7104 7.4421 23.936 7.45481C24.1672 7.47301 24.3729 7.4821 24.5494 7.4821C24.7442 7.4821 24.9026 7.46752 25.0244 7.43662C25.1519 7.40571 25.2539 7.35649 25.3266 7.2892C25.3994 7.22727 25.4486 7.14365 25.4722 7.03984C25.5032 6.9343 25.5178 6.81055 25.5178 6.66861V6.36281C25.2866 6.45016 25.0754 6.50836 24.8861 6.53939C24.7023 6.57029 24.5386 6.58487 24.3929 6.58487C24.0217 6.58487 23.7158 6.52842 23.4792 6.41739C23.2408 6.30636 23.0534 6.15171 22.9115 5.95332C22.7768 5.74945 22.682 5.50919 22.6275 5.23068C22.5784 4.94681 22.5547 4.6319 22.5547 4.28609C22.5547 3.92209 22.5856 3.59448 22.6457 3.30325C22.7076 3.00667 22.8131 2.75728 22.966 2.55343C23.1189 2.34413 23.3227 2.18214 23.5794 2.07112C23.8415 1.9601 24.1672 1.90367 24.5585 1.90367V1.90186ZM23.5976 4.19874C23.5976 4.48274 23.6122 4.72113 23.6431 4.91216C23.6795 5.10332 23.7323 5.25809 23.7977 5.37635C23.8706 5.48739 23.9616 5.56739 24.0726 5.61661C24.1891 5.66571 24.3256 5.69126 24.484 5.69126C24.6186 5.69126 24.7733 5.67842 24.9499 5.65474C25.1337 5.62932 25.3211 5.58932 25.5178 5.53474V2.89377C25.3776 2.86835 25.2247 2.85015 25.061 2.83737C24.9026 2.81916 24.7497 2.81006 24.6041 2.81006C24.4584 2.81006 24.3328 2.82462 24.211 2.85551C24.089 2.88654 23.9817 2.95196 23.8906 3.05029C23.7996 3.14312 23.7268 3.28145 23.6704 3.46712C23.6213 3.6528 23.5976 3.89667 23.5976 4.19874Z" fill="#ffffff"/>
<path d="M28.6477 0.789881C28.6477 0.864513 28.6424 0.935494 28.6295 1.00284C28.6168 1.06472 28.5895 1.11931 28.5477 1.17028C28.5113 1.21942 28.4567 1.25946 28.3839 1.2904C28.3165 1.31588 28.2255 1.3268 28.109 1.3268C27.9871 1.3268 27.8888 1.31224 27.8161 1.2813C27.7486 1.25036 27.6977 1.21032 27.6613 1.16117C27.6249 1.11204 27.6012 1.05561 27.5885 0.993727C27.5758 0.926385 27.5703 0.857223 27.5703 0.789881C27.5703 0.642461 27.6031 0.518693 27.6704 0.418602C27.7433 0.313028 27.8907 0.260254 28.109 0.260254C28.3275 0.260254 28.4804 0.309389 28.5477 0.407673C28.6151 0.500499 28.6477 0.626087 28.6477 0.788061V0.789881ZM28.5932 6.35738C28.5932 6.4066 28.5804 6.45022 28.5568 6.48661C28.5386 6.51764 28.4967 6.53209 28.4294 6.53209H27.7797C27.6577 6.53209 27.5957 6.4739 27.5957 6.35564V2.16766C27.5957 2.05119 27.6558 1.99112 27.7797 1.99112H28.4294C28.4967 1.99112 28.5386 2.00932 28.5568 2.04754C28.5804 2.07848 28.5932 2.11853 28.5932 2.16766V6.35564V6.35738Z" fill="#ffffff"/>
<path d="M32.5162 6.18113C32.5345 6.28668 32.4944 6.36307 32.3979 6.41216C32.3178 6.44868 32.2251 6.47958 32.114 6.505C32.0102 6.53055 31.9011 6.54874 31.7845 6.56145C31.6754 6.57965 31.568 6.59236 31.4643 6.59784C31.366 6.60332 31.2804 6.60694 31.2076 6.60694C30.94 6.60694 30.7289 6.57055 30.576 6.49591C30.4305 6.4159 30.3194 6.30849 30.2465 6.17203C30.1738 6.03545 30.1283 5.87894 30.1101 5.69874C30.0919 5.52042 30.0828 5.33113 30.0828 5.13448V2.80851H29.626C29.5587 2.80851 29.5132 2.79578 29.4895 2.77211C29.4658 2.74117 29.4531 2.69568 29.4531 2.63379V2.18059C29.4531 2.11872 29.4658 2.07321 29.4895 2.04227C29.5132 2.01133 29.5587 1.99677 29.626 1.99677H30.0919V1.04307C30.0919 0.975724 30.1065 0.928407 30.1374 0.904743C30.1738 0.873801 30.2175 0.851956 30.2649 0.83922L30.8782 0.671774C31.0001 0.640832 31.062 0.677232 31.062 0.782794V1.99677H32.0411C32.114 1.99677 32.1595 2.01133 32.1777 2.04227C32.2014 2.07321 32.2141 2.1169 32.2141 2.17149V2.63561C32.2141 2.69749 32.2014 2.74299 32.1777 2.77393C32.1595 2.79942 32.114 2.81033 32.0411 2.81033H31.062V5.11629C31.062 5.24016 31.0711 5.33474 31.0893 5.4039C31.1075 5.47119 31.1384 5.52403 31.1803 5.56229C31.2294 5.59319 31.2932 5.61139 31.3732 5.61861C31.4533 5.6241 31.5534 5.62784 31.6754 5.62784C31.7427 5.62784 31.8374 5.6241 31.9593 5.61861C32.0867 5.61326 32.1978 5.60416 32.2887 5.59132C32.3378 5.58597 32.3742 5.59132 32.3979 5.60952C32.4216 5.62784 32.4398 5.66597 32.4525 5.72055L32.5162 6.18474V6.18113Z" fill="#ffffff"/>
<path d="M35.8031 4.46841H34.6875C34.4563 4.46841 34.2725 4.52486 34.1378 4.6359C34.0032 4.74145 33.9358 4.94519 33.9358 5.24738C33.9358 5.45125 33.9759 5.59319 34.0542 5.67332C34.1396 5.74784 34.2889 5.78435 34.5019 5.78435C34.6001 5.78435 34.7057 5.77152 34.8222 5.74784C34.9387 5.72242 35.0533 5.68964 35.1698 5.64603C35.2862 5.60229 35.3991 5.5568 35.5083 5.50771C35.6176 5.45125 35.7158 5.40029 35.8014 5.34932V4.46841H35.8031ZM35.8578 6.00629C35.6267 6.18474 35.3645 6.33029 35.0715 6.44132C34.7858 6.55236 34.4855 6.60881 34.176 6.60881C33.9322 6.60881 33.7283 6.57778 33.5627 6.51597C33.4044 6.44855 33.2751 6.35758 33.1786 6.24655C33.0876 6.13016 33.0204 5.98997 32.9766 5.82984C32.9402 5.66958 32.922 5.48939 32.922 5.29287C32.9165 4.74867 33.0567 4.35738 33.3425 4.11712C33.6282 3.86964 34.0614 3.74589 34.6402 3.74589H35.8105V3.50564C35.8105 3.36906 35.7959 3.25628 35.765 3.16344C35.7413 3.06512 35.6921 2.98499 35.6193 2.92318C35.5466 2.86125 35.4482 2.81761 35.3264 2.79394C35.2044 2.76846 35.0497 2.75754 34.8604 2.75754C34.7877 2.75754 34.6966 2.76118 34.5855 2.76664C34.4818 2.77211 34.3727 2.77939 34.2562 2.78485C34.147 2.79031 34.0341 2.7994 33.9176 2.81215C33.8084 2.82489 33.7065 2.83398 33.6155 2.83945C33.5244 2.85215 33.4607 2.85402 33.4226 2.84854C33.3916 2.83582 33.3716 2.79576 33.3588 2.72842L33.2769 2.38625C33.2642 2.32437 33.2715 2.27523 33.2951 2.23883C33.3188 2.19516 33.3844 2.15147 33.488 2.10961C33.5864 2.07321 33.701 2.04227 33.8357 2.01678C33.9704 1.99131 34.1069 1.9731 34.2471 1.96037C34.3871 1.94216 34.5237 1.92943 34.6584 1.92397C34.7985 1.91122 34.9241 1.90576 35.0333 1.90576C35.43 1.90576 35.7431 1.9458 35.9742 2.02589C36.2127 2.10597 36.3911 2.22063 36.5148 2.36806C36.6368 2.51002 36.7151 2.68656 36.7532 2.89589C36.7896 3.10512 36.8078 3.34002 36.8078 3.60022V5.38758C36.8078 5.48029 36.8115 5.55493 36.817 5.60952C36.8297 5.65874 36.8443 5.69874 36.8625 5.72964C36.8862 5.75519 36.9207 5.77339 36.9626 5.7861C37.0044 5.79881 37.0626 5.8079 37.1355 5.81339C37.2028 5.81887 37.2483 5.83158 37.272 5.84977C37.2957 5.86797 37.3084 5.90261 37.3084 5.95171V6.34126C37.3084 6.44681 37.2356 6.51048 37.0882 6.53603C37.0154 6.54874 36.9425 6.55784 36.8679 6.56332C36.7951 6.57603 36.7242 6.58152 36.6568 6.58152C36.4438 6.58152 36.2691 6.54139 36.1362 6.46139C36.0089 6.38126 35.9197 6.23197 35.8706 6.01726L35.8524 6.00816L35.8578 6.00629Z" fill="#ffffff"/>
<path d="M39.0773 5.38529C39.0773 5.52723 39.1083 5.61645 39.1684 5.65471C39.2357 5.68561 39.3486 5.70019 39.5068 5.70019C39.5743 5.70568 39.6161 5.71477 39.6343 5.72748C39.6579 5.74019 39.6762 5.7711 39.6889 5.82032L39.7253 6.29349C39.7308 6.36813 39.6925 6.42633 39.6069 6.47007C39.5214 6.51368 39.4214 6.5411 39.3048 6.55381C39.1883 6.572 39.0919 6.5811 39.0119 6.5811C38.6642 6.5811 38.4203 6.50459 38.2801 6.34994C38.1454 6.18981 38.0781 5.95129 38.0781 5.63652V0.179961C38.0781 0.0634704 38.1363 0.00341797 38.2511 0.00341797H38.9008C39.0172 0.00341797 39.0737 0.061651 39.0737 0.179961V5.38716L39.0773 5.38529Z" fill="#ffffff"/>
<path d="M43.1992 0.567963C43.1992 0.444208 43.2565 0.382324 43.3712 0.382324H44.0665C44.1837 0.382324 44.2398 0.444208 44.2398 0.567963V6.35753C44.2398 6.47404 44.1812 6.53411 44.0665 6.53411H43.3712C43.2553 6.53411 43.1992 6.47591 43.1992 6.35753V0.567963Z" fill="#ffffff"/>
<path d="M49.3379 6.3574C49.3379 6.41385 49.3255 6.45572 49.3018 6.48662C49.2831 6.51765 49.242 6.53211 49.1747 6.53211H48.5155C48.4058 6.53211 48.351 6.47578 48.351 6.36475V6.06804H48.3335C48.3335 6.06804 48.3298 6.05895 48.3248 6.05895C48.2438 6.1154 48.1516 6.17546 48.0407 6.24462C47.931 6.30643 47.8114 6.36475 47.683 6.42108C47.5559 6.47753 47.4213 6.5194 47.2818 6.5503C47.1472 6.58681 47.0139 6.60675 46.8793 6.60675C46.5802 6.60675 46.3335 6.55404 46.1378 6.44849C45.9496 6.33746 45.7964 6.18269 45.6817 5.9843C45.5721 5.78591 45.4923 5.54939 45.4437 5.27088C45.4013 4.98688 45.3789 4.66849 45.3789 4.3172C45.3789 3.94036 45.4026 3.60365 45.4524 3.30706C45.5073 3.00487 45.602 2.74828 45.7365 2.53896C45.8711 2.32966 46.0531 2.17132 46.2836 2.06575C46.5229 1.95473 46.8269 1.8983 47.1983 1.8983C47.5684 1.8983 47.9535 1.9693 48.331 2.11126H48.341C48.341 2.11126 48.3447 2.10216 48.3497 2.10216V0.18382C48.3497 0.121936 48.3585 0.076439 48.3771 0.045497C48.4008 0.0145551 48.4494 0 48.5229 0H49.1722C49.2457 0 49.2906 0.0181938 49.3093 0.0564133C49.3267 0.0873553 49.3367 0.131033 49.3367 0.185639V6.35565L49.3379 6.3574ZM48.341 2.94842C48.1279 2.88661 47.9348 2.84661 47.7653 2.82836C47.602 2.80287 47.4413 2.79196 47.2905 2.79196C47.1273 2.79196 46.9864 2.81744 46.8705 2.86655C46.7534 2.91577 46.6624 2.99939 46.5951 3.11591C46.5279 3.23242 46.4793 3.39081 46.4493 3.58919C46.4182 3.78023 46.4045 4.02236 46.4045 4.31171C46.4045 4.60107 46.4169 4.84856 46.4406 5.03423C46.4718 5.21268 46.5166 5.35275 46.5765 5.45107C46.6388 5.54391 46.7123 5.60933 46.797 5.64585C46.883 5.67675 46.9864 5.69133 47.1086 5.69133C47.1995 5.69133 47.303 5.67675 47.4201 5.64585C47.536 5.61482 47.6506 5.57843 47.7678 5.53481C47.8837 5.49107 47.9896 5.44746 48.088 5.40559C48.1915 5.35636 48.2775 5.31275 48.3447 5.27636V2.95029L48.341 2.94842Z" fill="#ffffff"/>
<path d="M51.2713 4.54093C51.2776 4.77571 51.3025 4.97048 51.3449 5.12513C51.3935 5.2799 51.4632 5.40364 51.5555 5.49648C51.6464 5.58384 51.7598 5.6439 51.8944 5.68216C52.029 5.71855 52.1885 5.73849 52.3779 5.73849C52.5424 5.73849 52.7381 5.72577 52.9636 5.7021C53.1904 5.67668 53.3898 5.65661 53.568 5.63655C53.654 5.62384 53.7126 5.62745 53.7412 5.64565C53.7774 5.65848 53.801 5.70758 53.8147 5.79307L53.8683 6.09887C53.882 6.16629 53.8783 6.22262 53.8596 6.26636C53.8471 6.30997 53.7998 6.3501 53.7138 6.38649C53.6228 6.42287 53.5157 6.45739 53.3935 6.48842C53.2714 6.51384 53.1443 6.53391 53.0097 6.55384C52.8751 6.57216 52.7418 6.58849 52.6072 6.59945C52.4726 6.61216 52.3505 6.61765 52.2421 6.61765C51.8035 6.61765 51.452 6.5521 51.1891 6.42287C50.9274 6.29365 50.7255 6.12068 50.586 5.9041C50.4451 5.68752 50.3504 5.44003 50.3018 5.16339C50.2595 4.87951 50.2383 4.58642 50.2383 4.28248C50.2383 4.06042 50.2557 3.80932 50.2919 3.53267C50.3292 3.25416 50.4103 2.9957 50.5399 2.75364C50.6744 2.51339 50.8688 2.31137 51.1255 2.1512C51.3885 1.98377 51.7411 1.90186 52.1873 1.90186C52.5948 1.90186 52.9237 1.96374 53.1755 2.08751C53.4322 2.21126 53.6303 2.37143 53.7699 2.56982C53.9107 2.76092 54.0054 2.98299 54.054 3.23596C54.1088 3.48345 54.14 3.72919 54.145 3.97668C54.1512 4.14416 54.1238 4.27887 54.064 4.38442C54.0029 4.48997 53.882 4.5428 53.6976 4.5428H51.2751L51.2713 4.54093ZM52.1848 2.73363C52.0141 2.73363 51.8745 2.7591 51.7648 2.80825C51.6552 2.85738 51.5629 2.93202 51.4894 3.03035C51.4221 3.12306 51.3735 3.23958 51.3449 3.38151C51.3137 3.51809 51.2938 3.67099 51.2801 3.8457H53.092C53.092 3.70377 53.0783 3.56719 53.0558 3.43796C53.0322 3.30151 52.986 3.18138 52.9188 3.07583C52.8589 2.97028 52.7655 2.88829 52.6434 2.82644C52.5275 2.76457 52.3767 2.73363 52.1873 2.73363H52.1848Z" fill="#ffffff"/>
<path d="M58.8404 6.35721C58.8404 6.41366 58.8267 6.45553 58.8031 6.48644C58.7794 6.51747 58.732 6.53192 58.6672 6.53192H58.008C57.8921 6.53192 57.8348 6.47373 57.8348 6.35547L57.8448 3.75275C57.8448 3.48159 57.7987 3.2614 57.7077 3.09566C57.6217 2.9283 57.4497 2.84643 57.1868 2.84643C57.0958 2.84643 56.9887 2.86088 56.8665 2.89191C56.7506 2.92282 56.6323 2.96282 56.5101 3.01204C56.3943 3.05566 56.2846 3.10114 56.1812 3.15036C56.0765 3.19398 55.9955 3.23037 55.9332 3.2614V6.35547C55.9332 6.47186 55.8746 6.53192 55.76 6.53192H55.1107C54.9936 6.53192 54.9375 6.47373 54.9375 6.35547V2.17658C54.9375 2.05283 54.9961 1.99094 55.1107 1.99094H55.76C55.8771 1.99094 55.9332 2.05283 55.9332 2.17658V2.45506C55.9332 2.45506 55.9419 2.4587 55.9419 2.46416H55.9606C56.0466 2.40227 56.1463 2.34039 56.2622 2.2785C56.3843 2.21116 56.5126 2.14929 56.6472 2.09287C56.7818 2.03644 56.9214 1.99458 57.0672 1.96364C57.213 1.92724 57.3563 1.90723 57.4971 1.90723C57.8074 1.90723 58.0516 1.95636 58.2286 2.05465C58.4043 2.14747 58.5401 2.27305 58.6311 2.43503C58.7221 2.5952 58.7794 2.78448 58.8031 2.99921C58.8267 3.20856 58.8404 3.43237 58.8404 3.6654V6.35173V6.35721Z" fill="#ffffff"/>
<path d="M62.5943 6.18113C62.613 6.28668 62.5731 6.36307 62.4759 6.41216C62.3962 6.44868 62.3027 6.47958 62.1918 6.505C62.0884 6.53055 61.9799 6.54874 61.8628 6.56145C61.7531 6.57965 61.646 6.59236 61.5425 6.59784C61.4441 6.60332 61.3581 6.60694 61.2858 6.60694C61.0179 6.60694 60.8073 6.57055 60.654 6.49591C60.5082 6.4159 60.3973 6.30849 60.3251 6.17203C60.2515 6.03545 60.2067 5.87894 60.188 5.69874C60.1705 5.52042 60.1606 5.33113 60.1606 5.13448V2.80851H59.7045C59.6372 2.80851 59.5911 2.79578 59.5674 2.77211C59.5437 2.74117 59.5312 2.69568 59.5312 2.63379V2.18059C59.5312 2.11872 59.5437 2.07321 59.5674 2.04227C59.5911 2.01133 59.6384 1.99677 59.7045 1.99677H60.1705V1.04307C60.1705 0.975724 60.1842 0.928407 60.2154 0.904743C60.2515 0.873801 60.2964 0.851956 60.3425 0.83922L60.9569 0.671774C61.079 0.640832 61.14 0.677232 61.14 0.782794V1.99677H62.1195C62.1918 1.99677 62.2379 2.01133 62.2566 2.04227C62.2803 2.07321 62.2927 2.1169 62.2927 2.17149V2.63561C62.2927 2.69749 62.2803 2.74299 62.2566 2.77393C62.2379 2.79942 62.1918 2.81033 62.1195 2.81033H61.14V5.11629C61.14 5.24016 61.15 5.33474 61.1675 5.4039C61.1861 5.47306 61.2173 5.52403 61.2584 5.56229C61.3083 5.59319 61.3718 5.61139 61.4516 5.61861C61.5313 5.6241 61.6323 5.62784 61.7531 5.62784C61.8204 5.62784 61.9151 5.6241 62.0373 5.61861C62.1644 5.61326 62.2765 5.60416 62.3675 5.59132C62.4161 5.58597 62.4522 5.59132 62.4759 5.60952C62.4996 5.62784 62.5183 5.66597 62.5307 5.72055L62.5943 6.18474V6.18113Z" fill="#ffffff"/>
<path d="M64.2889 0.789881C64.2889 0.864513 64.2839 0.935494 64.2702 1.00284C64.2577 1.06472 64.2303 1.11931 64.1892 1.17028C64.1518 1.21942 64.0982 1.25946 64.0247 1.2904C63.9574 1.31588 63.8664 1.3268 63.7505 1.3268C63.6284 1.3268 63.53 1.31224 63.4564 1.2813C63.3891 1.25036 63.3393 1.21032 63.3019 1.16117C63.2658 1.11204 63.2421 1.05561 63.2296 0.993727C63.2172 0.926385 63.2109 0.857223 63.2109 0.789881C63.2109 0.642461 63.2446 0.518693 63.3119 0.418602C63.3842 0.313028 63.5312 0.260254 63.7505 0.260254C63.9686 0.260254 64.1219 0.309389 64.1892 0.407673C64.2565 0.500499 64.2889 0.626087 64.2889 0.788061V0.789881ZM64.234 6.35738C64.234 6.4066 64.2216 6.45022 64.1979 6.48661C64.1792 6.51764 64.1381 6.53209 64.0708 6.53209H63.4203C63.2982 6.53209 63.2371 6.4739 63.2371 6.35564V2.16766C63.2371 2.05119 63.2969 1.99112 63.4203 1.99112H64.0708C64.1381 1.99112 64.1792 2.00932 64.1979 2.04754C64.2216 2.07848 64.234 2.11853 64.234 2.16766V6.35564V6.35738Z" fill="#ffffff"/>
<path d="M68.158 6.18113C68.1755 6.28668 68.1356 6.36307 68.0397 6.41216C67.9587 6.44868 67.8664 6.47958 67.7555 6.505C67.6521 6.53055 67.5424 6.54874 67.4253 6.56145C67.3169 6.57965 67.2097 6.59236 67.105 6.59784C67.0066 6.60332 66.9219 6.60694 66.8483 6.60694C66.5817 6.60694 66.3698 6.57055 66.2178 6.49591C66.072 6.4159 65.9611 6.30849 65.8876 6.17203C65.8153 6.03545 65.7692 5.87894 65.7517 5.69874C65.733 5.52042 65.7243 5.33113 65.7243 5.13448V2.80851H65.267C65.1997 2.80851 65.1548 2.79578 65.1311 2.77211C65.1075 2.74117 65.0938 2.69568 65.0938 2.63379V2.18059C65.0938 2.11872 65.1075 2.07321 65.1311 2.04227C65.1548 2.01133 65.1997 1.99677 65.267 1.99677H65.733V1.04307C65.733 0.975724 65.748 0.928407 65.7791 0.904743C65.8153 0.873801 65.8589 0.851956 65.9062 0.83922L66.5194 0.671774C66.6415 0.640832 66.7038 0.677232 66.7038 0.782794V1.99677H67.682C67.7555 1.99677 67.8004 2.01133 67.8191 2.04227C67.8428 2.07321 67.8552 2.1169 67.8552 2.17149V2.63561C67.8552 2.69749 67.8428 2.74299 67.8191 2.77393C67.8004 2.79942 67.7555 2.81033 67.682 2.81033H66.7038V5.11629C66.7038 5.24016 66.7125 5.33474 66.73 5.4039C66.7486 5.47119 66.7798 5.52403 66.8222 5.56229C66.8708 5.59319 66.9343 5.61139 67.0141 5.61861C67.0951 5.6241 67.1948 5.62784 67.3169 5.62784C67.3842 5.62784 67.4789 5.6241 67.601 5.61861C67.7281 5.61326 67.839 5.60416 67.93 5.59132C67.9786 5.58597 68.016 5.59132 68.0397 5.60952C68.0633 5.62784 68.0808 5.66597 68.0932 5.72055L68.158 6.18474V6.18113Z" fill="#ffffff"/>
<path d="M70.4565 5.23655C70.5238 5.04539 70.5837 4.8652 70.641 4.69958C70.7008 4.5321 70.7531 4.38829 70.7955 4.26455C70.8441 4.11713 70.8902 3.98068 70.9313 3.85694L71.4996 2.15151C71.5183 2.09509 71.542 2.05505 71.5731 2.03138C71.603 2.0059 71.6529 1.99498 71.7177 1.99498H72.3956C72.4678 1.99498 72.5077 2.01319 72.5139 2.05141C72.5189 2.08781 72.5139 2.13149 72.4953 2.18064L70.3643 8.07217C70.3407 8.13398 70.3132 8.17772 70.2821 8.2014C70.2509 8.22682 70.1961 8.23779 70.1188 8.23779H69.4958C69.4235 8.23779 69.3799 8.21959 69.3687 8.18134C69.3624 8.14495 69.3687 8.10121 69.3861 8.05211L69.9631 6.48682L68.3643 2.1788C68.3456 2.12967 68.3406 2.08599 68.3456 2.04959C68.358 2.01319 68.3967 1.99316 68.464 1.99316H69.168C69.2303 1.99316 69.2715 1.99862 69.2951 2.01137C69.3188 2.02411 69.345 2.06415 69.3687 2.13149L69.9631 3.85507L70.4204 5.23468H70.4565V5.23655Z" fill="#ffffff"/>
<path d="M0.84952 0.58227C0.84952 0.460322 0.911327 0.398438 1.03694 0.398438H4.47682C4.5952 0.398438 4.65527 0.456683 4.65527 0.573161V1.14102C4.65527 1.25022 4.59334 1.30665 4.46773 1.30665H1.91611V2.88095H4.17837C4.30211 2.88095 4.36579 2.93553 4.36579 3.04656V3.61443C4.36579 3.72372 4.30398 3.78005 4.17837 3.78005H1.91611V5.58373H4.53327C4.64617 5.58373 4.70076 5.64205 4.70076 5.75844V6.31721C4.70076 6.4265 4.6407 6.48283 4.52231 6.48283H1.0352C0.911331 6.48283 0.847656 6.42825 0.847656 6.31721V0.58409L0.84952 0.58227Z" fill="#ffffff"/>
<path d="M8.05863 5.6368C8.46998 5.6368 8.78127 5.52751 8.99424 5.30732C9.21257 5.08164 9.32186 4.73035 9.32186 4.25357V0.580672C9.32186 0.458723 9.38366 0.396839 9.50928 0.396839H10.21C10.2792 0.396839 10.3228 0.415046 10.3411 0.451446C10.3665 0.482388 10.3792 0.524246 10.3792 0.578852L10.3701 4.2517C10.3701 4.43551 10.3574 4.61757 10.332 4.80138C10.3137 4.97796 10.2701 5.15628 10.2009 5.33286C10.1081 5.55306 9.98606 5.73874 9.83689 5.89164C9.69309 6.04442 9.52934 6.17003 9.34179 6.26648C9.15437 6.3648 8.95237 6.43396 8.73392 6.47758C8.51547 6.5268 8.29166 6.55048 8.0605 6.55048C7.07592 6.55048 6.4025 6.2119 6.04211 5.533C5.94192 5.34919 5.87101 5.1508 5.82727 4.93783C5.78366 4.71764 5.76172 4.48835 5.76172 4.2517V0.578852C5.76172 0.456904 5.82179 0.39502 5.94017 0.39502H6.64089C6.75915 0.39502 6.81921 0.456904 6.81921 0.578852V4.2517C6.81921 4.70306 6.92115 5.04887 7.12676 5.28738C7.33798 5.51842 7.65102 5.63493 8.06237 5.63493L8.05863 5.6368Z" fill="#ffffff"/>
<path d="M11.3436 20.5395L10.7958 22.396L8.89018 28.7988C8.83735 28.99 8.75909 29.1302 8.65541 29.2175C8.56805 29.3049 8.40244 29.3485 8.16031 29.3485H6.28198C6.03811 29.3485 5.86527 29.3049 5.75972 29.2175C5.65592 29.1302 5.58489 28.9991 5.55037 28.8261L0.880159 12.5167C0.792803 12.169 0.905579 11.9943 1.21861 11.9943H3.28075C3.4901 11.9943 3.63752 12.0381 3.72487 12.1254C3.82855 12.1946 3.90681 12.3256 3.95965 12.5167C4.39468 14.102 4.79508 15.5489 5.16082 16.8557C5.31734 17.4126 5.46488 17.9714 5.60495 18.5283C5.76147 19.0689 5.89979 19.5657 6.02178 20.0171C6.16011 20.4703 6.27475 20.8616 6.36024 21.1929C6.44759 21.5242 6.50766 21.7425 6.5423 21.8463L7.37773 25.1132H7.45598L8.21314 22.4214C8.23134 22.3522 8.28231 22.1593 8.36966 21.8463C8.45702 21.5151 8.5607 21.131 8.68269 20.696C8.82102 20.2429 8.96109 19.7641 9.09941 19.2582C9.25605 18.7522 9.39425 18.2736 9.51625 17.8203C9.65457 17.3671 9.76922 16.9831 9.85483 16.67C9.94219 16.3388 10.0022 16.1294 10.0368 16.0421L8.96658 12.5131C8.93206 12.3729 8.93206 12.2509 8.96658 12.1472C9.01941 12.0434 9.11399 11.9907 9.25418 11.9907H11.2108C11.6112 11.9907 11.855 12.1654 11.9405 12.5131C12.4102 14.1329 12.8269 15.6144 13.1928 16.9558C13.3493 17.531 13.5058 18.097 13.6623 18.6539C13.8188 19.2108 13.9572 19.726 14.0792 20.1955C14.2175 20.6651 14.3321 21.0746 14.4176 21.424C14.505 21.7553 14.565 21.9737 14.5997 22.0775L15.3823 25.1096H15.4861L16.2158 21.9992C16.2505 21.8954 16.3124 21.6771 16.3979 21.3457C16.4852 20.9982 16.5889 20.5887 16.7109 20.1173C16.8329 19.6458 16.9639 19.1325 17.1022 18.5756C17.2587 18.0187 17.4152 17.46 17.5718 16.9031C17.9194 15.578 18.3107 14.1147 18.7458 12.5131C18.8331 12.1654 19.077 11.9907 19.4756 11.9907H21.4594C21.7725 11.9907 21.869 12.1818 21.747 12.5658L17.2333 28.7971C17.1805 28.9881 17.095 29.1283 16.973 29.2157C16.8693 29.303 16.6946 29.3468 16.4506 29.3468H14.6506C14.3721 29.3468 14.1811 29.303 14.0773 29.2157C13.9899 29.1119 13.9208 28.9718 13.8679 28.7971L11.9625 22.3414L11.4401 20.5122L11.3363 20.5377L11.3436 20.5395Z" fill="#ffffff"/>
<path d="M30.8996 23.5186H27.7164C27.0556 23.5186 26.5334 23.6753 26.1512 23.9901C25.7689 24.2868 25.5778 24.8619 25.5778 25.7155C25.5778 26.2906 25.6906 26.6911 25.9164 26.9185C26.1603 27.1279 26.5861 27.2315 27.194 27.2315C27.4725 27.2315 27.7764 27.197 28.1076 27.1279C28.439 27.0587 28.7684 26.9623 29.0996 26.8403C29.4308 26.7184 29.7512 26.5873 30.0642 26.449C30.3773 26.2924 30.6558 26.1432 30.8996 26.0048V23.5224V23.5186ZM31.0562 27.8577C30.3955 28.3637 29.6474 28.7732 28.8121 29.0862C27.9949 29.3992 27.1413 29.5576 26.2549 29.5576C25.5596 29.5576 24.9772 29.4703 24.5058 29.2956C24.0544 29.1044 23.6887 28.8514 23.4101 28.5384C23.1498 28.2072 22.9588 27.8159 22.8368 27.3626C22.7331 26.9094 22.6803 26.4053 22.6803 25.8466C22.6621 24.3141 23.0625 23.2075 23.8816 22.5268C24.6988 21.8297 25.9346 21.482 27.5871 21.482H30.9269V20.8031C30.9269 20.4192 30.8833 20.0969 30.7958 19.8368C30.7267 19.5582 30.5866 19.3308 30.3791 19.1578C30.1698 18.9831 29.8914 18.8611 29.5437 18.792C29.196 18.7228 28.752 18.6883 28.2132 18.6883C28.004 18.6883 27.7436 18.6974 27.4306 18.7137C27.1358 18.7319 26.8227 18.7484 26.4915 18.7666C26.1785 18.7847 25.8563 18.8102 25.5269 18.8448C25.2138 18.8793 24.9262 18.9049 24.666 18.9231C24.4057 18.9576 24.2219 18.9667 24.1181 18.9485C24.0307 18.914 23.9707 18.8011 23.9362 18.6082L23.7014 17.6418C23.6667 17.4671 23.6832 17.3287 23.7541 17.2232C23.8232 17.1012 24.0071 16.9792 24.302 16.8573C24.5804 16.7535 24.9099 16.6662 25.2938 16.5953C25.6762 16.5261 26.0674 16.4733 26.4678 16.4387C26.8682 16.3859 27.2595 16.3514 27.6417 16.3349C28.0422 16.3004 28.3989 16.2822 28.7119 16.2822C29.8422 16.2822 30.7377 16.395 31.4001 16.6226C32.079 16.8482 32.5923 17.1722 32.94 17.5889C33.2875 17.9893 33.5132 18.4863 33.6188 19.0796C33.7226 19.6711 33.7753 20.3336 33.7753 21.0652V26.1086C33.7753 26.3707 33.7844 26.5801 33.8008 26.7366C33.8353 26.8766 33.8791 26.9895 33.9318 27.0769C34.001 27.1461 34.0975 27.1989 34.2194 27.2334C34.3414 27.2681 34.507 27.2935 34.7145 27.3117C34.9055 27.3299 35.0366 27.3645 35.1058 27.4155C35.175 27.4682 35.2095 27.5629 35.2095 27.703V28.8005C35.2095 29.0972 35.0002 29.2791 34.5834 29.3501C34.3742 29.3848 34.1667 29.4102 33.9573 29.4284C33.748 29.463 33.5479 29.4812 33.3567 29.4812C32.7488 29.4812 32.252 29.3683 31.8698 29.1408C31.5039 28.9151 31.2527 28.4965 31.1126 27.8868L31.0598 27.8614L31.0562 27.8577Z" fill="#ffffff"/>
<path d="M40.2432 26.1069C40.2432 26.5074 40.3305 26.7604 40.5035 26.8641C40.6951 26.9514 41.0166 26.9952 41.4677 26.9952C41.6597 27.0134 41.7805 27.0388 41.8341 27.0734C41.9027 27.1079 41.9562 27.1953 41.9899 27.3355L42.0946 28.6677C42.112 28.8771 41.9974 29.0427 41.7556 29.1646C41.5114 29.2866 41.2247 29.3648 40.8945 29.3994C40.563 29.4522 40.285 29.4776 40.0593 29.4776C39.0674 29.4776 38.3722 29.2593 37.9718 28.8243C37.5896 28.371 37.3984 27.6995 37.3984 26.8114V11.4173C37.3984 11.086 37.5641 10.9204 37.8935 10.9204H39.7463C40.0775 10.9204 40.2414 11.086 40.2414 11.4173V26.1052L40.2432 26.1069Z" fill="#ffffff"/>
<path d="M47.1497 26.1069C47.1497 26.5074 47.2369 26.7604 47.4089 26.8641C47.6008 26.9514 47.9223 26.9952 48.3746 26.9952C48.5653 27.0134 48.6874 27.0388 48.7398 27.0734C48.8095 27.1079 48.8619 27.1953 48.8968 27.3355L49.0002 28.6677C49.0189 28.8771 48.9042 29.0427 48.6612 29.1646C48.4182 29.2866 48.1304 29.3648 47.8001 29.3994C47.4699 29.4522 47.1908 29.4776 46.9652 29.4776C45.9733 29.4776 45.2779 29.2593 44.8779 28.8243C44.4953 28.371 44.3047 27.6995 44.3047 26.8114V11.4173C44.3047 11.086 44.4704 10.9204 44.7994 10.9204H46.6524C46.9839 10.9204 47.1472 11.086 47.1472 11.4173V26.1052L47.1497 26.1069Z" fill="#ffffff"/>
<path d="M53.5839 23.728C53.6026 24.3904 53.6711 24.9384 53.7932 25.3752C53.9316 25.8102 54.1322 26.1596 54.3939 26.4198C54.6543 26.6638 54.9758 26.8385 55.3584 26.9422C55.741 27.046 56.2033 27.0987 56.7416 27.0987C57.2114 27.0987 57.7684 27.0642 58.4127 26.995C59.057 26.9259 59.6302 26.8639 60.1349 26.8112C60.3779 26.7766 60.5436 26.7857 60.6296 26.8366C60.7331 26.8713 60.8041 27.0114 60.839 27.2552L60.9947 28.1179C61.0296 28.3091 61.0209 28.4656 60.9698 28.5894C60.9349 28.7114 60.7954 28.8241 60.5524 28.9297C60.2932 29.0335 59.9866 29.1299 59.6389 29.2173C59.2912 29.2865 58.9261 29.3483 58.5436 29.4011C58.161 29.4539 57.7772 29.4976 57.3946 29.5322C57.0133 29.5667 56.6656 29.5849 56.3503 29.5849C55.0979 29.5849 54.0973 29.4011 53.3496 29.0352C52.6007 28.6695 52.0274 28.1816 51.6274 27.572C51.2274 26.9623 50.9582 26.2652 50.8199 25.4807C50.6978 24.6799 50.6367 23.8517 50.6367 22.9981C50.6367 22.3702 50.6903 21.6659 50.7937 20.8814C50.8972 20.0969 51.1327 19.3653 51.4978 18.6864C51.8804 18.0075 52.4374 17.4398 53.1689 16.9883C53.9166 16.5187 54.9247 16.2822 56.1958 16.2822C57.361 16.2822 58.3018 16.4569 59.0134 16.8045C59.7436 17.1522 60.3094 17.6054 60.7094 18.1642C61.1094 18.7046 61.3798 19.3308 61.5181 20.046C61.6739 20.7431 61.7611 21.4402 61.7773 22.1373C61.796 22.6087 61.7175 22.9909 61.543 23.2876C61.3686 23.5842 61.0209 23.7316 60.4988 23.7316H53.5839V23.728ZM56.1933 18.6318C55.7061 18.6318 55.3073 18.701 54.9945 18.8412C54.6817 18.9813 54.4213 19.1888 54.2119 19.4691C54.0213 19.7312 53.8805 20.0624 53.7945 20.4628C53.7072 20.8469 53.6474 21.2818 53.6125 21.7697H58.7803C58.7803 21.3693 58.7454 20.9852 58.6769 20.6193C58.6071 20.2353 58.4763 19.8968 58.2856 19.6001C58.1099 19.3034 57.8507 19.0686 57.503 18.8939C57.1715 18.7192 56.7366 18.6318 56.1971 18.6318H56.1933Z" fill="#ffffff"/>
<path d="M72.1052 28.3548C72.1576 28.6514 72.0454 28.8681 71.7663 29.0082C71.5407 29.112 71.2715 29.1993 70.9587 29.2703C70.6622 29.3394 70.3494 29.3922 70.0191 29.4268C69.7064 29.4796 69.4023 29.5141 69.1057 29.5306C68.8278 29.5488 68.5836 29.556 68.3755 29.556C67.6091 29.556 67.0109 29.4523 66.576 29.243C66.1586 29.0155 65.8458 28.7115 65.6364 28.3275C65.4271 27.9435 65.2987 27.4993 65.2451 26.9953C65.1928 26.4892 65.1666 25.9579 65.1666 25.4008V18.8414H63.8619C63.6712 18.8414 63.5404 18.8068 63.4706 18.7376C63.4021 18.6503 63.3672 18.5192 63.3672 18.3463V17.0651C63.3672 16.8903 63.4021 16.7592 63.4706 16.6738C63.5404 16.5864 63.6712 16.5427 63.8619 16.5427H65.1928V13.8509C65.1928 13.6597 65.2364 13.5287 65.3236 13.4596C65.4271 13.3721 65.5492 13.3121 65.69 13.2756L67.4384 12.8061C67.786 12.7187 67.9605 12.8243 67.9605 13.1191V16.5427H70.7531C70.9625 16.5427 71.0908 16.5864 71.1444 16.6738C71.213 16.7611 71.2479 16.883 71.2479 17.0395V18.3463C71.2479 18.5211 71.213 18.6522 71.1444 18.7376C71.0908 18.8068 70.9625 18.8414 70.7531 18.8414H67.9605V25.3499C67.9605 25.6975 67.9867 25.9687 68.039 26.1599C68.0914 26.3509 68.1773 26.5002 68.2995 26.6039C68.4378 26.6913 68.621 26.744 68.8478 26.7605C69.0733 26.7787 69.3599 26.7859 69.7076 26.7859C69.8995 26.7859 70.1687 26.7768 70.5164 26.7605C70.8815 26.7422 71.1955 26.7168 71.456 26.6821C71.5943 26.6639 71.699 26.6822 71.7687 26.735C71.8373 26.7878 71.8909 26.8915 71.9245 27.048L72.1052 28.3548Z" fill="#ffffff"/>
</svg>
