<svg width="18" height="18" viewBox="0 0 18 18" fill="none" xmlns="http://www.w3.org/2000/svg">
<g id="custom.3.square.fill" clip-path="url(#clip0_5893_24868)">
<g id="Group">
<path id="Vector" d="M17.972 3.04084V14.9581C17.972 16.9693 16.9548 17.9907 14.9084 17.9907H3.06359C1.02752 17.9907 0 16.9735 0 14.9581V3.04084C0 1.02549 1.02752 0.00830078 3.06359 0.00830078H14.9084C16.9548 0.00830078 17.972 1.02971 17.972 3.04084ZM5.95672 6.15055C5.92356 6.29165 5.9111 6.39746 5.9111 6.54679C5.9111 6.95509 6.1971 7.2225 6.59294 7.2225C6.95159 7.2225 7.17549 7.0421 7.28935 6.69593C7.51537 5.95189 8.14534 5.4841 9.07207 5.4841C10.0862 5.4841 10.7038 5.97701 10.7038 6.78143C10.7038 7.61692 10.0053 8.21987 9.04121 8.21987H8.41124C8.04435 8.21987 7.78116 8.4727 7.78116 8.84996C7.78116 9.2065 8.04435 9.4697 8.41124 9.4697H9.09528C10.2296 9.4697 11.0153 10.0955 11.0153 10.9994C11.0153 11.9016 10.2235 12.4942 9.05348 12.4942C7.95481 12.4942 7.35146 11.9726 7.10244 11.2824C6.97402 10.9237 6.75222 10.7558 6.40602 10.7558C5.99985 10.7558 5.71172 11.0418 5.71172 11.4522C5.71172 11.6015 5.72419 11.6866 5.75947 11.8278C6.05852 12.9924 7.37245 13.7833 9.02243 13.7833C11.1787 13.7833 12.522 12.6559 12.522 11.0512C12.522 9.88421 11.6269 8.93106 10.3977 8.80856V8.73801C11.4152 8.5925 12.2001 7.65602 12.2001 6.61563C12.2001 5.19568 10.9172 4.19499 9.10312 4.19499C7.46158 4.19499 6.22625 4.95701 5.95672 6.15055Z" fill="black" fill-opacity="0.87"/>
</g>
</g>
<defs>
<clipPath id="clip0_5893_24868">
<rect width="17.9728" height="17.9906" fill="white"/>
</clipPath>
</defs>
</svg>
